<svg width="20" height="21" viewBox="0 0 20 21" fill="none" xmlns="http://www.w3.org/2000/svg">
<path d="M10 6.3667V9.1417" stroke="#6B6F74" stroke-width="1.5" stroke-miterlimit="10" stroke-linecap="round"/>
<path d="M10.0166 2.66669C6.94992 2.66669 4.46658 5.15002 4.46658 8.21669V9.96669C4.46658 10.5334 4.23325 11.3834 3.94158 11.8667L2.88325 13.6334C2.23325 14.725 2.68325 15.9417 3.88325 16.3417C7.86658 17.6667 12.1749 17.6667 16.1582 16.3417C17.2832 15.9667 17.7666 14.65 17.1582 13.6334L16.0999 11.8667C15.8082 11.3834 15.5749 10.525 15.5749 9.96669V8.21669C15.5666 5.16669 13.0666 2.66669 10.0166 2.66669Z" stroke="#6B6F74" stroke-width="1.5" stroke-miterlimit="10" stroke-linecap="round"/>
<path d="M12.7751 16.6833C12.7751 18.2083 11.5251 19.4583 10.0001 19.4583C9.24176 19.4583 8.54176 19.1417 8.04176 18.6417C7.54176 18.1417 7.2251 17.4417 7.2251 16.6833" stroke="#6B6F74" stroke-width="1.5" stroke-miterlimit="10"/>
<circle cx="15" cy="4" r="3.5" fill="#468D8D" stroke="white"/>
</svg>
