<svg width="16" height="16" viewBox="0 0 16 16" fill="none" xmlns="http://www.w3.org/2000/svg">
<path d="M14.6663 11.16V3.1133C14.6663 2.3133 14.013 1.71996 13.2197 1.78663H13.1797C11.7797 1.90663 9.65301 2.61996 8.46634 3.36663L8.35301 3.43996C8.15967 3.55996 7.83967 3.55996 7.64634 3.43996L7.47967 3.33996C6.29301 2.59996 4.17301 1.8933 2.77301 1.77996C1.97967 1.7133 1.33301 2.3133 1.33301 3.10663V11.16C1.33301 11.8 1.85301 12.4 2.49301 12.48L2.68634 12.5066C4.13301 12.7 6.36634 13.4333 7.64634 14.1333L7.67301 14.1466C7.85301 14.2466 8.13967 14.2466 8.31301 14.1466C9.59301 13.44 11.833 12.7 13.2863 12.5066L13.5063 12.48C14.1463 12.4 14.6663 11.8 14.6663 11.16Z" stroke="#474747" stroke-width="1.2" stroke-linecap="round" stroke-linejoin="round"/>
<path d="M8 3.65991V13.6599" stroke="#474747" stroke-width="1.2" stroke-linecap="round" stroke-linejoin="round"/>
<path d="M5.16699 5.65991H3.66699" stroke="#474747" stroke-width="1.2" stroke-linecap="round" stroke-linejoin="round"/>
<path d="M5.66699 7.65991H3.66699" stroke="#474747" stroke-width="1.2" stroke-linecap="round" stroke-linejoin="round"/>
</svg>
