<svg width="16" height="16" viewBox="0 0 16 16" fill="none" xmlns="http://www.w3.org/2000/svg">
<path d="M9.50012 9.55583V10.8232V10.8233H9.40012C9.40026 11.0749 9.2213 11.2789 9.00049 11.2791L9.50012 9.55583ZM9.50012 9.55583H10.6005C10.8885 9.55583 11.1006 9.29432 11.1006 9.00001C11.1006 8.7057 10.8885 8.44419 10.6005 8.44419H9.50012V7.17673C9.50012 6.88242 9.28804 6.62091 9 6.62091C8.71196 6.62091 8.49988 6.88242 8.49988 7.17673V8.44419H7.39953C7.11149 8.44419 6.89941 8.7057 6.89941 9.00001C6.89941 9.29432 7.11149 9.55583 7.39953 9.55583H8.49988H9.50012ZM15.6569 2.55896L15.657 2.55907C17.581 4.76699 17.581 8.32502 15.657 10.5329L15.6569 10.533L10.554 16.3659L15.6569 2.55896ZM15.6569 2.55896C13.8538 0.496063 10.9662 0.340001 9 2.18637C7.03375 0.339666 4.1458 0.496186 2.34307 2.55987L2.34299 2.55996M15.6569 2.55896L2.34299 2.55996M2.34299 2.55996C0.419002 4.76782 0.419003 8.32585 2.34299 10.5338L2.34313 10.5339M2.34299 2.55996L2.34313 10.5339M2.34313 10.5339L7.44682 16.3668L2.34313 10.5339ZM3.06119 3.33318L3.06114 3.33324C1.51305 5.11013 1.51301 7.9816 3.061 9.75856L3.06119 3.33318ZM3.06119 3.33318C3.8009 2.48271 4.80594 2.00869 5.85036 2.01167L5.85094 2.01166M3.06119 3.33318L5.85094 2.01166M5.85094 2.01166C6.89564 2.00848 7.90097 2.48255 8.64093 3.33313L8.6409 3.33315M5.85094 2.01166L8.6409 3.33315M8.6409 3.33315L8.64273 3.33515M8.6409 3.33315L8.64273 3.33515M8.64273 3.33515C8.84109 3.55104 9.159 3.55104 9.35736 3.33515L9.35739 3.33518M8.64273 3.33515L9.35739 3.33518M9.35739 3.33518L9.35918 3.33312M9.35739 3.33518L9.35918 3.33312M9.35918 3.33312C10.0989 2.48271 11.1039 2.00864 12.1483 2.01166H12.1486M9.35918 3.33312L12.1486 2.01166M12.1486 2.01166L12.1494 2.01166L12.1497 2.01166M12.1486 2.01166L12.1497 2.01166M12.1497 2.01166C13.1942 2.00896 14.1992 2.48331 14.9388 3.33405L14.9389 3.33416M12.1497 2.01166L14.9389 3.33416M14.9389 3.33416C16.4878 5.11033 16.4878 7.98228 14.939 9.75856L14.9389 3.33416ZM9.00002 17.1C8.41407 17.1015 7.85517 16.8355 7.44697 16.367L9.00002 17.1ZM9.00002 17.1C8.99993 17.1 8.99984 17.1 8.99975 17.1L9 17L9.00002 17.1ZM9.00002 17.1C9.58635 17.1014 10.1455 16.8351 10.5538 16.3661L9.00002 17.1ZM8.16334 15.5907L3.06114 9.75871L14.9389 9.75868L9.83753 15.5899C9.36799 16.1021 8.63328 16.1025 8.16334 15.5907Z" fill="#474747" stroke="#474747" stroke-width="0.2"/>
</svg>
