<svg width="16" height="16" viewBox="0 0 16 16" fill="none" xmlns="http://www.w3.org/2000/svg">
<path d="M12.6673 6.00004C12.6673 6.96671 12.3807 7.85338 11.8873 8.59338C11.1673 9.66005 10.0273 10.4134 8.70065 10.6067C8.47398 10.6467 8.24065 10.6667 8.00065 10.6667C7.76065 10.6667 7.52732 10.6467 7.30065 10.6067C5.97398 10.4134 4.83398 9.66005 4.11398 8.59338C3.62065 7.85338 3.33398 6.96671 3.33398 6.00004C3.33398 3.42004 5.42065 1.33337 8.00065 1.33337C10.5807 1.33337 12.6673 3.42004 12.6673 6.00004Z" stroke="#F26A47" stroke-width="1.3" stroke-linecap="round" stroke-linejoin="round"/>
<path d="M14.1674 12.3133L13.0674 12.5733C12.8207 12.6333 12.6274 12.82 12.574 13.0667L12.3407 14.0467C12.214 14.58 11.534 14.74 11.1807 14.32L8.0007 10.6666L4.8207 14.3266C4.46737 14.7466 3.78737 14.5866 3.6607 14.0533L3.42737 13.0733C3.36737 12.8266 3.17404 12.6333 2.93404 12.58L1.83404 12.32C1.32737 12.2 1.14737 11.5666 1.51404 11.2L4.11404 8.59998C4.83404 9.66664 5.97404 10.42 7.3007 10.6133C7.52737 10.6533 7.7607 10.6733 8.0007 10.6733C8.2407 10.6733 8.47404 10.6533 8.7007 10.6133C10.0274 10.42 11.1674 9.66664 11.8874 8.59998L14.4874 11.2C14.854 11.56 14.674 12.1933 14.1674 12.3133Z" stroke="#F26A47" stroke-width="1.3" stroke-linecap="round" stroke-linejoin="round"/>
<path d="M8.3873 3.98663L8.78063 4.77329C8.83397 4.87995 8.97397 4.98663 9.10063 5.00663L9.81397 5.12662C10.2673 5.19995 10.374 5.53329 10.0473 5.85996L9.49397 6.41328C9.40063 6.50662 9.3473 6.68663 9.38063 6.81996L9.54063 7.50662C9.6673 8.04662 9.38063 8.25995 8.90063 7.97328L8.23397 7.57995C8.11397 7.50662 7.91397 7.50662 7.79397 7.57995L7.1273 7.97328C6.6473 8.25328 6.36063 8.04662 6.4873 7.50662L6.6473 6.81996C6.67397 6.69329 6.6273 6.50662 6.53397 6.41328L5.98063 5.85996C5.65397 5.53329 5.76063 5.20662 6.21397 5.12662L6.9273 5.00663C7.0473 4.98663 7.1873 4.87995 7.24063 4.77329L7.63397 3.98663C7.8273 3.55996 8.17397 3.55996 8.3873 3.98663Z" stroke="#F26A47" stroke-width="1.3" stroke-linecap="round" stroke-linejoin="round"/>
</svg>
