<svg width="44" height="44" viewBox="0 0 44 44" fill="none" xmlns="http://www.w3.org/2000/svg">
<path d="M31 15.98C27.67 15.65 24.32 15.48 20.98 15.48C19 15.48 17.02 15.58 15.04 15.78L13 15.98" stroke="#F3617C" stroke-width="1.5" stroke-linecap="round" stroke-linejoin="round"/>
<path d="M18.5 14.97L18.72 13.66C18.88 12.71 19 12 20.69 12H23.31C25 12 25.13 12.75 25.28 13.67L25.5 14.97" stroke="#F3617C" stroke-width="1.5" stroke-linecap="round" stroke-linejoin="round"/>
<path d="M28.8484 19.14L28.1984 29.21C28.0884 30.78 27.9984 32 25.2084 32H18.7884C15.9984 32 15.9084 30.78 15.7984 29.21L15.1484 19.14" stroke="#F3617C" stroke-width="1.5" stroke-linecap="round" stroke-linejoin="round"/>
<path d="M20.3281 26.5H23.6581" stroke="#F3617C" stroke-width="1.5" stroke-linecap="round" stroke-linejoin="round"/>
<path d="M19.5 22.5H24.5" stroke="#F3617C" stroke-width="1.5" stroke-linecap="round" stroke-linejoin="round"/>
<rect x="0.5" y="0.5" width="43" height="43" rx="9.5" stroke="#EEEEEE"/>
</svg>
