<svg width="44" height="44" viewBox="0 0 44 44" fill="none" xmlns="http://www.w3.org/2000/svg">
<path d="M18 12V15" stroke="#292D32" stroke-width="1.5" stroke-miterlimit="10" stroke-linecap="round" stroke-linejoin="round"/>
<path d="M26 12V15" stroke="#292D32" stroke-width="1.5" stroke-miterlimit="10" stroke-linecap="round" stroke-linejoin="round"/>
<path d="M13.5 19.09H30.5" stroke="#292D32" stroke-width="1.5" stroke-miterlimit="10" stroke-linecap="round" stroke-linejoin="round"/>
<path d="M29.2091 25.77L25.6691 29.31C25.5291 29.45 25.3991 29.71 25.3691 29.9L25.1791 31.25C25.1091 31.74 25.4491 32.0801 25.9391 32.0101L27.2891 31.82C27.4791 31.79 27.7491 31.66 27.8791 31.52L31.4191 27.9801C32.0291 27.3701 32.3191 26.6601 31.4191 25.7601C30.5291 24.8701 29.8191 25.16 29.2091 25.77Z" stroke="#292D32" stroke-width="1.5" stroke-miterlimit="10" stroke-linecap="round" stroke-linejoin="round"/>
<path d="M28.6992 26.28C28.9992 27.36 29.8392 28.2 30.9192 28.5" stroke="#292D32" stroke-width="1.5" stroke-miterlimit="10" stroke-linecap="round" stroke-linejoin="round"/>
<path d="M22 32H18C14.5 32 13 30 13 27V18.5C13 15.5 14.5 13.5 18 13.5H26C29.5 13.5 31 15.5 31 18.5V22" stroke="#292D32" stroke-width="1.5" stroke-miterlimit="10" stroke-linecap="round" stroke-linejoin="round"/>
<path d="M21.9945 23.7H22.0035" stroke="#292D32" stroke-width="2" stroke-linecap="round" stroke-linejoin="round"/>
<path d="M18.2953 23.7H18.3043" stroke="#292D32" stroke-width="2" stroke-linecap="round" stroke-linejoin="round"/>
<path d="M18.2953 26.7H18.3043" stroke="#292D32" stroke-width="2" stroke-linecap="round" stroke-linejoin="round"/>
<rect x="0.5" y="0.5" width="43" height="43" rx="9.5" stroke="#EEEEEE"/>
</svg>
