<svg width="16" height="16" viewBox="0 0 16 16" fill="none" xmlns="http://www.w3.org/2000/svg">
<path d="M14.3273 8C14.5407 7.32 14.6673 6.58667 14.6673 5.79333C14.6673 3.73333 13.0073 2.06665 10.9607 2.06665C9.74732 2.06665 8.67398 2.65335 8.00065 3.56002C7.32732 2.65335 6.24732 2.06665 5.04065 2.06665C2.99398 2.06665 1.33398 3.73333 1.33398 5.79333C1.33398 10.46 5.65398 13.2133 7.58732 13.88C7.70065 13.92 7.84732 13.94 8.00065 13.94" stroke="#F26A47" stroke-width="1.3" stroke-linecap="round" stroke-linejoin="round"/>
<path d="M12.806 10.4933L10.446 12.8534C10.3527 12.9467 10.266 13.12 10.246 13.2467L10.1194 14.1467C10.0727 14.4733 10.2994 14.7 10.626 14.6533L11.526 14.5267C11.6527 14.5067 11.8327 14.42 11.9194 14.3267L14.2794 11.9667C14.686 11.56 14.8794 11.0867 14.2794 10.4867C13.686 9.89334 13.2127 10.0867 12.806 10.4933Z" stroke="#F26A47" stroke-width="1.3" stroke-miterlimit="10" stroke-linecap="round" stroke-linejoin="round"/>
<path d="M12.4668 10.8333C12.6668 11.5533 13.2268 12.1133 13.9468 12.3133" stroke="#F26A47" stroke-width="1.3" stroke-miterlimit="10" stroke-linecap="round" stroke-linejoin="round"/>
</svg>
