<svg width="18" height="19" viewBox="0 0 18 19" fill="none" xmlns="http://www.w3.org/2000/svg">
<path d="M17 16.7471V8.11215C17 7.95444 16.9639 7.79889 16.8944 7.65783C16.825 7.51677 16.7242 7.39407 16.6 7.29945L9.6 1.96611C9.4269 1.83423 9.21637 1.76294 9 1.76294C8.78363 1.76294 8.5731 1.83423 8.4 1.96611L1.4 7.29945C1.2758 7.39407 1.175 7.51677 1.10557 7.65783C1.03614 7.79889 1 7.95444 1 8.11215V16.7471C1 17.0165 1.10536 17.2749 1.29289 17.4654C1.48043 17.6559 1.73478 17.7629 2 17.7629H6C6.26522 17.7629 6.51957 17.6559 6.70711 17.4654C6.89464 17.2749 7 17.0165 7 16.7471V13.6994C7 13.43 7.10536 13.1716 7.29289 12.9811C7.48043 12.7906 7.73478 12.6836 8 12.6836H10C10.2652 12.6836 10.5196 12.7906 10.7071 12.9811C10.8946 13.1716 11 13.43 11 13.6994V16.7471C11 17.0165 11.1054 17.2749 11.2929 17.4654C11.4804 17.6559 11.7348 17.7629 12 17.7629H16C16.2652 17.7629 16.5196 17.6559 16.7071 17.4654C16.8946 17.2749 17 17.0165 17 16.7471Z" stroke="white" stroke-width="2" stroke-linecap="round" stroke-linejoin="round"/>
</svg>
