<svg width="22" height="22" viewBox="0 0 22 22" fill="none" xmlns="http://www.w3.org/2000/svg">
<path d="M3.08315 17.8167H3.08333H15.1667V17.6667L15.1675 17.8167C15.2574 17.8162 15.3459 17.7943 15.4258 17.753C15.5056 17.7116 15.5745 17.6519 15.6267 17.5787C15.679 17.5056 15.7132 17.4211 15.7264 17.3321C15.7397 17.2432 15.7317 17.1524 15.703 17.0672L15.7028 17.0664L10.2861 1.23311L10.2861 1.23307C10.2478 1.12131 10.1756 1.0243 10.0794 0.955617C9.98332 0.886934 9.86814 0.850007 9.75001 0.85H3.08333C1.85216 0.85 0.85 1.85216 0.85 3.08333L0.85 15.5833L0.85 15.5835C0.850709 16.1756 1.08622 16.7432 1.50486 17.1618C1.9235 17.5805 2.4911 17.816 3.08315 17.8167ZM1.98333 3.08333C1.98333 2.47701 2.47701 1.98333 3.08333 1.98333H9.34527L14.3735 16.6833H3.08333C2.47701 16.6833 1.98333 16.1897 1.98333 15.5833V3.08333Z" fill="#F26A47" stroke="#F26A47" stroke-width="0.3"/>
<path d="M11.7195 20.7828L11.7195 20.7826L10.4695 17.4494L10.4695 17.4493L10.6099 17.3966C10.571 17.2932 10.5748 17.1786 10.6204 17.0779C10.6661 16.9773 10.7498 16.8989 10.8533 16.86C10.9567 16.8211 11.0713 16.8249 11.172 16.8705C11.2726 16.9161 11.351 16.9999 11.3899 17.1033L11.7195 20.7828ZM11.7195 20.7828C11.7601 20.8907 11.8326 20.9836 11.9274 21.0492C12.0221 21.1148 12.1347 21.15 12.2499 21.15H18.9166C20.1478 21.15 21.1499 20.1478 21.1499 18.9166V6.41665C21.1499 5.18547 20.1478 4.18331 18.9166 4.18331H10.9999C10.8496 4.18331 10.7055 4.24302 10.5992 4.34929C10.493 4.45556 10.4333 4.59969 10.4333 4.74998C10.4333 4.90027 10.493 5.0444 10.5992 5.15067C10.7055 5.25694 10.8496 5.31665 10.9999 5.31665H18.9166C19.5229 5.31665 20.0166 5.81032 20.0166 6.41665V18.9166C20.0166 19.523 19.5229 20.0166 18.9166 20.0166H12.643L11.7195 20.7828Z" fill="#F26A47" stroke="#F26A47" stroke-width="0.3"/>
<path d="M8.91692 12.8167H8.91687C8.79985 12.8169 8.68565 12.7808 8.59 12.7134C8.49439 12.646 8.42202 12.5506 8.38284 12.4404C8.38282 12.4403 8.38281 12.4403 8.38279 12.4402L6.83331 8.10184L5.28375 12.4404C5.28375 12.4405 5.28374 12.4405 5.28373 12.4405C5.23323 12.582 5.12858 12.6977 4.99279 12.7621C4.85698 12.8265 4.70115 12.8343 4.55958 12.7838C4.41801 12.7333 4.3023 12.6287 4.2379 12.4928C4.17351 12.357 4.1657 12.2012 4.21619 12.0596L4.21621 12.0596L6.29953 6.2263L6.29955 6.22625L6.44081 6.2767C6.55914 5.94504 7.10747 5.94504 7.22497 6.2767L8.91692 12.8167ZM8.91692 12.8167C9.00762 12.8165 9.09696 12.7946 9.17742 12.7527C9.25788 12.7109 9.32712 12.6503 9.37931 12.5761C9.43151 12.5019 9.46513 12.4163 9.47736 12.3264C9.48959 12.2366 9.48006 12.1451 9.44959 12.0596L9.44957 12.0596M8.91692 12.8167L9.44957 12.0596M9.44957 12.0596L7.36636 6.22661L9.44957 12.0596ZM14.7404 16.8763L14.7404 16.8763L11.824 20.2094L11.9366 20.3083L11.8238 20.2096L11.8239 20.2095C11.752 20.2913 11.7052 20.3922 11.6892 20.5C11.6731 20.6078 11.6885 20.7179 11.7335 20.8172C11.7785 20.9165 11.8511 21.0007 11.9428 21.0597C12.0344 21.1188 12.1411 21.1501 12.2501 21.15C12.3309 21.15 12.4108 21.1327 12.4844 21.0993C12.558 21.0659 12.6236 21.0172 12.6769 20.9564L12.677 20.9563L15.5937 17.623C15.5937 17.623 15.5937 17.623 15.5937 17.623C15.6427 17.567 15.6802 17.5018 15.7041 17.4313C15.728 17.3608 15.7377 17.2863 15.7327 17.212C15.7278 17.1377 15.7083 17.0651 15.6753 16.9984C15.6423 16.9316 15.5965 16.872 15.5404 16.823C15.4844 16.774 15.4193 16.7364 15.3487 16.7126C15.2782 16.6887 15.2037 16.679 15.1294 16.6839C15.0551 16.6889 14.9825 16.7084 14.9158 16.7414C14.849 16.7744 14.7895 16.8202 14.7404 16.8763Z" fill="#F26A47" stroke="#F26A47" stroke-width="0.3"/>
<path d="M5.99992 10.3166H7.66659C7.81687 10.3166 7.96101 10.2569 8.06728 10.1507C8.17355 10.0444 8.23325 9.90027 8.23325 9.74998C8.23325 9.59969 8.17355 9.45556 8.06728 9.34929C7.96101 9.24301 7.81687 9.18331 7.66659 9.18331H5.99992C5.84963 9.18331 5.7055 9.24301 5.59922 9.34929C5.49295 9.45556 5.43325 9.59969 5.43325 9.74998C5.43325 9.90027 5.49295 10.0444 5.59922 10.1507C5.7055 10.2569 5.84963 10.3166 5.99992 10.3166ZM13.0833 10.3166H18.9166C19.0669 10.3166 19.211 10.2569 19.3173 10.1507C19.4235 10.0444 19.4833 9.90027 19.4833 9.74998C19.4833 9.59969 19.4235 9.45556 19.3173 9.34929C19.211 9.24301 19.0669 9.18331 18.9166 9.18331H13.0833C12.933 9.18331 12.7888 9.24301 12.6826 9.34929C12.5763 9.45556 12.5166 9.59969 12.5166 9.74998C12.5166 9.90027 12.5763 10.0444 12.6826 10.1507C12.7888 10.2569 12.933 10.3166 13.0833 10.3166Z" fill="#F26A47" stroke="#F26A47" stroke-width="0.3"/>
<path d="M14.3341 15.3167C14.4509 15.3165 14.5649 15.2807 14.6607 15.2139L14.6607 15.2139L14.6619 15.2131C15.6348 14.5214 16.5244 13.4434 17.1699 12.4047C17.4933 11.8843 17.7577 11.3703 17.9417 10.9145C18.1241 10.4628 18.2333 10.0547 18.2333 9.75083C18.2333 9.60054 18.1736 9.45641 18.0673 9.35014C17.961 9.24387 17.8169 9.18417 17.6666 9.18417C17.5163 9.18417 17.3722 9.24387 17.2659 9.35014C17.1596 9.45641 17.0999 9.60054 17.0999 9.75083C17.0999 9.89892 17.0274 10.1754 16.8745 10.5433C16.7243 10.9045 16.5043 11.336 16.2271 11.7866C15.6716 12.6897 14.8948 13.6561 14.0053 14.2881C13.9064 14.3571 13.8321 14.4559 13.7933 14.5701C13.7544 14.6846 13.7533 14.8086 13.7902 14.9238C13.827 15.0389 13.8998 15.1393 13.9979 15.21C14.0957 15.2805 14.2135 15.3179 14.3341 15.3167ZM14.3341 15.3167C14.3338 15.3167 14.3335 15.3167 14.3332 15.3167L14.3333 15.1667L14.3351 15.3167C14.3348 15.3167 14.3344 15.3167 14.3341 15.3167ZM15.1826 10.1507C15.2889 10.257 15.433 10.3167 15.5833 10.3167C15.7336 10.3167 15.8777 10.257 15.984 10.1507C16.0902 10.0444 16.1499 9.90029 16.1499 9.75V8.91667C16.1499 8.76638 16.0902 8.62224 15.984 8.51597C15.8777 8.4097 15.7336 8.35 15.5833 8.35C15.433 8.35 15.2889 8.4097 15.1826 8.51597C15.0763 8.62224 15.0166 8.76638 15.0166 8.91667V9.75C15.0166 9.90029 15.0763 10.0444 15.1826 10.1507Z" fill="#F26A47" stroke="#F26A47" stroke-width="0.3"/>
<path d="M13.8065 12.0417L13.8066 12.0417C13.7559 11.9037 13.7609 11.7515 13.8204 11.6171C13.8798 11.4827 13.9892 11.3767 14.1254 11.3214C14.2615 11.2661 14.4138 11.2659 14.5502 11.3208C14.6865 11.3756 14.7962 11.4813 14.8561 11.6156L14.8581 11.6202L14.858 11.6202C14.9343 11.8079 15.1173 12.0783 15.3743 12.3984C15.6284 12.7148 15.945 13.068 16.277 13.4191C16.9409 14.1212 17.6602 14.8086 18.0494 15.1651L13.8065 12.0417ZM13.8065 12.0417L13.8084 12.0465C13.9356 12.3594 14.2028 12.7459 14.5249 13.1461C14.8496 13.5495 15.2395 13.9783 15.6224 14.3774C16.3878 15.1753 17.1314 15.8615 17.2842 16.0013M13.8065 12.0417L17.2842 16.0013M17.2842 16.0013C17.2842 16.0012 17.2841 16.0011 17.284 16.0011L17.3857 15.8908L17.2845 16.0015C17.2844 16.0014 17.2843 16.0014 17.2842 16.0013ZM13.9474 11.99C13.9102 11.8886 13.9138 11.7766 13.9575 11.6778C14.0012 11.579 14.0817 11.501 14.1818 11.4604C14.2819 11.4197 14.3939 11.4195 14.4942 11.4599C14.5944 11.5003 14.675 11.578 14.7191 11.6767C15.0599 12.5158 17.1657 14.5592 17.9482 15.2758C18.0103 15.3325 18.0537 15.4067 18.0728 15.4885C18.0919 15.5703 18.0859 15.6561 18.0554 15.7344C18.0249 15.8127 17.9715 15.88 17.9021 15.9274C17.8327 15.9748 17.7506 16.0001 17.6666 16L13.9474 11.99Z" fill="#F26A47" stroke="#F26A47" stroke-width="0.3"/>
</svg>
