<svg width="26" height="26" viewBox="0 0 26 26" fill="none" xmlns="http://www.w3.org/2000/svg">
<g clip-path="url(#clip0_574_61455)">
<path d="M0.8125 24.6797C0.528125 24.6797 0.304688 24.9031 0.304688 25.1875C0.304688 25.4719 0.528125 25.6953 0.8125 25.6953H3.85938H14.0156H23.1563C23.6031 25.6953 24.0297 25.5734 24.4156 25.35C25.0047 25.0047 25.4313 24.4562 25.5938 23.8062C25.7766 23.1562 25.675 22.4656 25.35 21.8766L22.5063 16.9609C22.0594 16.1687 21.2063 15.6812 20.3125 15.6812C19.8656 15.6812 19.4391 15.8031 19.0531 16.0266C18.4641 16.3719 18.0375 16.9203 17.875 17.5703C17.7125 18.2203 17.7938 18.9109 18.1188 19.5L20.9625 24.4156C21.0234 24.4969 21.0641 24.5984 21.125 24.6797H16.4937C17.1641 24.0297 17.5703 23.1359 17.5703 22.1406V6.29688C17.5703 6.11406 17.5297 5.95156 17.4891 5.78906H17.6719C18.7281 5.78906 19.6016 4.91563 19.6016 3.85938C19.6016 2.80313 18.7281 1.92969 17.6719 1.92969H17.5703V1.82812C17.5703 0.995313 16.8797 0.304688 16.0469 0.304688H1.82813C0.995313 0.304688 0.304688 0.995313 0.304688 1.82812V2.84375C0.304688 3.67656 0.995313 4.36719 1.82813 4.36719H1.92969V4.77344H1.82813C1.42188 4.77344 1.03594 4.93594 0.751563 5.22031C0.467188 5.50469 0.304688 5.89062 0.304688 6.29688V9.95312V20.1094V22.1406C0.304688 23.1359 0.710938 24.0297 1.38125 24.6797H0.8125ZM18.9922 18.9922C18.7891 18.6469 18.7281 18.2203 18.85 17.8344C18.9516 17.4484 19.2156 17.1031 19.5609 16.9C19.7844 16.7578 20.0484 16.6969 20.3125 16.6969C20.8609 16.6969 21.3688 16.9813 21.6328 17.4688L22.8109 19.5L20.1703 21.0234L18.9922 18.9922ZM20.6781 21.8969L23.3188 20.3734L24.4969 22.4047C24.7 22.75 24.7609 23.1766 24.6391 23.5625C24.5375 23.9484 24.2734 24.2937 23.9281 24.4969C23.7047 24.6391 23.4406 24.7 23.1766 24.7C22.6281 24.7 22.1203 24.4156 21.8563 23.9281L20.6781 21.8969ZM17.5703 2.94531H17.6719C18.1797 2.94531 18.5859 3.35156 18.5859 3.85938C18.5859 4.36719 18.1797 4.77344 17.6719 4.77344H16.0469H15.9453V4.36719H16.0469C16.8594 4.36719 17.5094 3.7375 17.5703 2.94531ZM1.82813 3.35156C1.54375 3.35156 1.32031 3.12812 1.32031 2.84375V1.82812C1.32031 1.54375 1.54375 1.32031 1.82813 1.32031H16.0469C16.3313 1.32031 16.5547 1.54375 16.5547 1.82812V2.84375C16.5547 3.12812 16.3313 3.35156 16.0469 3.35156H1.82813ZM1.32031 16.5547H2.84375C3.12813 16.5547 3.35156 16.3312 3.35156 16.0469C3.35156 15.7625 3.12813 15.5391 2.84375 15.5391H1.32031V14.5234H4.875C5.15938 14.5234 5.38281 14.3 5.38281 14.0156C5.38281 13.7312 5.15938 13.5078 4.875 13.5078H1.32031V10.4609H6.90625C7.73906 10.4609 8.42969 11.1516 8.42969 11.9844V18.0781C8.42969 18.9109 7.73906 19.6016 6.90625 19.6016H1.32031V16.5547ZM1.32031 22.1406V20.6172H6.90625C8.30781 20.6172 9.44531 19.4797 9.44531 18.0781V11.9844C9.44531 10.5828 8.30781 9.44531 6.90625 9.44531H1.32031V6.29688C1.32031 6.15469 1.38125 6.03281 1.4625 5.93125C1.54375 5.82969 1.68594 5.78906 1.82813 5.78906H2.4375H13.4063C13.6906 5.78906 13.9141 5.56563 13.9141 5.28125C13.9141 4.99687 13.6906 4.77344 13.4063 4.77344H2.94531V4.36719H14.9297V5.28125C14.9297 5.32188 14.9297 5.34219 14.9297 5.38281C14.9297 5.40312 14.95 5.42344 14.95 5.44375C14.95 5.46406 14.95 5.46406 14.95 5.48438C14.95 5.50469 14.9703 5.525 14.9906 5.54531C14.9906 5.54531 14.9906 5.56562 15.0109 5.56562C15.0313 5.58594 15.0516 5.62656 15.0719 5.64687C15.0922 5.66719 15.1125 5.6875 15.1531 5.70781C15.1531 5.70781 15.1734 5.70781 15.1734 5.72813C15.1938 5.74844 15.2141 5.74844 15.2344 5.76875C15.2547 5.76875 15.2547 5.76875 15.275 5.78906C15.2953 5.78906 15.3156 5.80938 15.3359 5.80938C15.3766 5.80938 15.3969 5.80938 15.4375 5.80938H16.0469C16.1891 5.80938 16.3109 5.87031 16.4125 5.95156C16.5141 6.05312 16.5547 6.175 16.5547 6.31719V22.1609C16.5547 23.5625 15.4172 24.7 14.0156 24.7H3.85938C2.45781 24.6797 1.32031 23.5422 1.32031 22.1406Z" fill="#F26A47"/>
<path d="M8.9375 1.52344C8.65312 1.52344 8.42969 1.74688 8.42969 2.03125V2.64062C8.42969 2.925 8.65312 3.14844 8.9375 3.14844C9.22188 3.14844 9.44531 2.925 9.44531 2.64062V2.03125C9.44531 1.74688 9.22188 1.52344 8.9375 1.52344ZM6.90625 1.52344C6.62187 1.52344 6.39844 1.74688 6.39844 2.03125V2.64062C6.39844 2.925 6.62187 3.14844 6.90625 3.14844C7.19063 3.14844 7.41406 2.925 7.41406 2.64062V2.03125C7.41406 1.74688 7.19063 1.52344 6.90625 1.52344ZM4.875 1.52344C4.59063 1.52344 4.36719 1.74688 4.36719 2.03125V2.64062C4.36719 2.925 4.59063 3.14844 4.875 3.14844C5.15937 3.14844 5.38281 2.925 5.38281 2.64062V2.03125C5.38281 1.74688 5.15937 1.52344 4.875 1.52344ZM2.84375 1.52344C2.55938 1.52344 2.33594 1.74688 2.33594 2.03125V2.64062C2.33594 2.925 2.55938 3.14844 2.84375 3.14844C3.12813 3.14844 3.35156 2.925 3.35156 2.64062V2.03125C3.35156 1.74688 3.12813 1.52344 2.84375 1.52344Z" fill="#F26A47"/>
</g>
<defs>
<clipPath id="clip0_574_61455">
<rect width="26" height="26" fill="white"/>
</clipPath>
</defs>
</svg>
