<svg width="54" height="54" viewBox="0 0 54 54" fill="none" xmlns="http://www.w3.org/2000/svg">
<path d="M43.8734 9.31258C44.1077 9.70479 43.6858 10.1486 43.2438 10.033C43.1544 10.0096 43.065 9.98782 42.9756 9.9675C41.9181 9.6525 40.7481 9.495 39.5556 9.495H31.8178C31.6606 9.495 31.5126 9.42105 31.4181 9.29537L28.6431 5.6025C28.5838 5.51852 28.5235 5.43562 28.462 5.35357C28.2045 5.00973 28.4379 4.5 28.8675 4.5H35.3706C38.9819 4.5 42.1508 6.42841 43.8734 9.31258Z" fill="#468D8D"/>
<path d="M45.315 14.715C44.3475 14.0175 43.245 13.5 42.0525 13.2075C41.2425 12.9825 40.41 12.87 39.555 12.87H31.185C29.88 12.87 29.79 12.7575 29.0925 11.835L25.9425 7.65C24.48 5.6925 23.3325 4.5 19.665 4.5H14.445C8.955 4.5 4.5 8.955 4.5 14.445V39.555C4.5 45.045 8.955 49.5 14.445 49.5H39.555C45.045 49.5 49.5 45.045 49.5 39.555V22.815C49.5 19.4625 47.8575 16.515 45.315 14.715ZM32.3775 36.765H21.6C20.7225 36.765 20.0475 36.0675 20.0475 35.19C20.0475 34.335 20.7225 33.615 21.6 33.615H32.3775C33.255 33.615 33.9525 34.335 33.9525 35.19C33.9525 36.0675 33.255 36.765 32.3775 36.765Z" fill="#468D8D"/>
</svg>
