<svg width="16" height="16" viewBox="0 0 16 16" fill="none" xmlns="http://www.w3.org/2000/svg">
<path d="M14.6473 12.22C14.6473 12.46 14.594 12.7067 14.4806 12.9467C14.3673 13.1867 14.2207 13.4133 14.0273 13.6267C13.7007 13.9867 13.3407 14.2467 12.934 14.4133C12.534 14.58 12.1007 14.6667 11.634 14.6667C10.954 14.6667 10.2273 14.5067 9.46065 14.18C8.69398 13.8533 7.92732 13.4133 7.16732 12.86C6.40065 12.3 5.67398 11.68 4.98065 10.9933C4.29398 10.3 3.67398 9.57333 3.12065 8.81333C2.57398 8.05333 2.13398 7.29333 1.81398 6.54C1.49398 5.78 1.33398 5.05333 1.33398 4.36C1.33398 3.90667 1.41398 3.47333 1.57398 3.07333C1.73398 2.66667 1.98732 2.29333 2.34065 1.96C2.76732 1.54 3.23398 1.33333 3.72732 1.33333C3.91398 1.33333 4.10065 1.37333 4.26732 1.45333C4.44065 1.53333 4.59398 1.65333 4.71398 1.82667L6.26065 4.00667C6.38065 4.17333 6.46732 4.32667 6.52732 4.47333C6.58732 4.61333 6.62065 4.75333 6.62065 4.88C6.62065 5.04 6.57398 5.2 6.48065 5.35333C6.39398 5.50666 6.26732 5.66666 6.10732 5.82666L5.60065 6.35333C5.52732 6.42666 5.49398 6.51333 5.49398 6.62C5.49398 6.67333 5.50065 6.72 5.51398 6.77333C5.53398 6.82666 5.55398 6.86666 5.56732 6.90666C5.68732 7.12666 5.89398 7.41333 6.18732 7.76C6.48732 8.10667 6.80732 8.46 7.15398 8.81333C7.51398 9.16667 7.86065 9.49333 8.21398 9.79333C8.56065 10.0867 8.84732 10.2867 9.07398 10.4067C9.10732 10.42 9.14732 10.44 9.19398 10.46C9.24732 10.48 9.30065 10.4867 9.36065 10.4867C9.47398 10.4867 9.56065 10.4467 9.63398 10.3733L10.1407 9.87333C10.3073 9.70667 10.4673 9.58 10.6207 9.5C10.774 9.40666 10.9273 9.36 11.094 9.36C11.2207 9.36 11.354 9.38666 11.5007 9.44666C11.6473 9.50666 11.8007 9.59333 11.9673 9.70667L14.174 11.2733C14.3473 11.3933 14.4673 11.5333 14.5406 11.7C14.6073 11.8667 14.6473 12.0333 14.6473 12.22Z" stroke="#F26A47" stroke-width="1.3" stroke-miterlimit="10"/>
</svg>
