<svg width="16" height="16" viewBox="0 0 16 16" fill="none" xmlns="http://www.w3.org/2000/svg">
<path d="M8.86729 5.40667L9.74729 7.16667C9.86729 7.40667 10.1873 7.64667 10.454 7.68667L12.0473 7.95333C13.0673 8.12667 13.3073 8.86 12.574 9.59334L11.334 10.8333C11.1273 11.04 11.0073 11.4467 11.074 11.74L11.4273 13.28C11.7073 14.4933 11.0606 14.9667 9.9873 14.3333L8.49396 13.4467C8.22062 13.2867 7.78064 13.2867 7.5073 13.4467L6.01395 14.3333C4.94062 14.9667 4.29395 14.4933 4.57395 13.28L4.9273 11.74C4.99397 11.4533 4.87396 11.0467 4.6673 10.8333L3.4273 9.59334C2.69397 8.86 2.93396 8.12 3.95396 7.95333L5.5473 7.68667C5.81397 7.64 6.13397 7.40667 6.25397 7.16667L7.13397 5.40667C7.6073 4.45334 8.39395 4.45334 8.86729 5.40667Z" stroke="#F26A47" stroke-width="1.3" stroke-linecap="round" stroke-linejoin="round"/>
<path d="M4 6V1.33333" stroke="#F26A47" stroke-width="1.3" stroke-linecap="round" stroke-linejoin="round"/>
<path d="M12 6V1.33333" stroke="#F26A47" stroke-width="1.3" stroke-linecap="round" stroke-linejoin="round"/>
<path d="M8 2.66667V1.33333" stroke="#F26A47" stroke-width="1.3" stroke-linecap="round" stroke-linejoin="round"/>
</svg>
