<svg width="26" height="26" viewBox="0 0 26 26" fill="none" xmlns="http://www.w3.org/2000/svg">
<path d="M13.0001 2.16669C10.1617 2.16669 7.85425 4.47419 7.85425 7.31252C7.85425 10.0967 10.0317 12.35 12.8701 12.4475C12.9567 12.4367 13.0434 12.4367 13.1084 12.4475C13.1301 12.4475 13.1409 12.4475 13.1626 12.4475C13.1734 12.4475 13.1734 12.4475 13.1842 12.4475C15.9576 12.35 18.1351 10.0967 18.1459 7.31252C18.1459 4.47419 15.8384 2.16669 13.0001 2.16669Z" fill="#F26A47"/>
<path opacity="0.4" d="M18.5033 15.34C15.4808 13.325 10.5516 13.325 7.50746 15.34C6.13162 16.25 5.37329 17.4958 5.37329 18.8283C5.37329 20.1608 6.13162 21.3958 7.49662 22.3058C9.01329 23.3242 11.0066 23.8333 13 23.8333C14.9933 23.8333 16.9866 23.3242 18.5033 22.3058C19.8683 21.385 20.6266 20.15 20.6266 18.8067C20.6158 17.485 19.8683 16.2392 18.5033 15.34Z" fill="#F26A47"/>
<path d="M12.3174 20.865C12.1441 20.865 11.9708 20.7892 11.8408 20.67L10.4758 19.305C10.2158 19.045 10.2158 18.6117 10.4758 18.3517C10.7358 18.0917 11.1691 18.0917 11.4291 18.3517L12.3174 19.24L14.5708 16.9867C14.8308 16.7267 15.2641 16.7267 15.5241 16.9867C15.7841 17.2467 15.7841 17.68 15.5241 17.94L12.7941 20.67C12.6641 20.8 12.4908 20.865 12.3174 20.865Z" fill="#F26A47"/>
</svg>
