<svg width="26" height="26" viewBox="0 0 26 26" fill="none" xmlns="http://www.w3.org/2000/svg">
<path opacity="0.4" d="M23.0209 9.91249C20.5184 5.97999 16.8567 3.71582 13.0001 3.71582C11.0717 3.71582 9.19758 4.27915 7.48591 5.32999C5.77425 6.39165 4.23591 7.94082 2.97925 9.91249C1.89591 11.6133 1.89591 14.3758 2.97925 16.0767C5.48175 20.02 9.14341 22.2733 13.0001 22.2733C14.9284 22.2733 16.8026 21.71 18.5142 20.6592C20.2259 19.5975 21.7642 18.0483 23.0209 16.0767C24.1042 14.3867 24.1042 11.6133 23.0209 9.91249ZM13.0001 17.3767C10.5734 17.3767 8.62341 15.4158 8.62341 13C8.62341 10.5842 10.5734 8.62332 13.0001 8.62332C15.4267 8.62332 17.3767 10.5842 17.3767 13C17.3767 15.4158 15.4267 17.3767 13.0001 17.3767Z" fill="#F26A47"/>
<path d="M13.0001 9.90167C11.2993 9.90167 9.9126 11.2883 9.9126 13C9.9126 14.7008 11.2993 16.0875 13.0001 16.0875C14.7009 16.0875 16.0984 14.7008 16.0984 13C16.0984 11.2992 14.7009 9.90167 13.0001 9.90167Z" fill="#F26A47"/>
</svg>
