<svg width="26" height="26" viewBox="0 0 26 26" fill="none" xmlns="http://www.w3.org/2000/svg">
<path d="M18.1458 3.85668V2.16669C18.1458 1.72252 17.7774 1.35419 17.3333 1.35419C16.8891 1.35419 16.5208 1.72252 16.5208 2.16669V3.79169H9.47909V2.16669C9.47909 1.72252 9.11076 1.35419 8.66659 1.35419C8.22242 1.35419 7.85409 1.72252 7.85409 2.16669V3.85668C4.92909 4.12752 3.50992 5.87168 3.29326 8.46085C3.27159 8.77502 3.53159 9.03502 3.83492 9.03502H22.1649C22.4791 9.03502 22.7391 8.76418 22.7066 8.46085C22.4899 5.87168 21.0708 4.12752 18.1458 3.85668Z" fill="#F26A47"/>
<path opacity="0.4" d="M21.6667 10.66C22.2625 10.66 22.75 11.1475 22.75 11.7433V18.4166C22.75 21.6666 21.125 23.8333 17.3333 23.8333H8.66667C4.875 23.8333 3.25 21.6666 3.25 18.4166V11.7433C3.25 11.1475 3.7375 10.66 4.33333 10.66H21.6667Z" fill="#F26A47"/>
<path d="M9.20833 16.25C8.92667 16.25 8.645 16.1308 8.43917 15.9358C8.24417 15.73 8.125 15.4483 8.125 15.1667C8.125 14.885 8.24417 14.6033 8.43917 14.3975C8.7425 14.0942 9.21917 13.9967 9.62 14.17C9.76083 14.2242 9.88 14.3 9.9775 14.3975C10.1725 14.6033 10.2917 14.885 10.2917 15.1667C10.2917 15.4483 10.1725 15.73 9.9775 15.9358C9.77167 16.1308 9.49 16.25 9.20833 16.25Z" fill="#F26A47"/>
<path d="M12.9998 16.25C12.7182 16.25 12.4365 16.1308 12.2307 15.9358C12.0357 15.73 11.9165 15.4483 11.9165 15.1667C11.9165 14.885 12.0357 14.6033 12.2307 14.3975C12.3282 14.3 12.4473 14.2242 12.5882 14.17C12.989 13.9967 13.4657 14.0942 13.769 14.3975C13.964 14.6033 14.0832 14.885 14.0832 15.1667C14.0832 15.4483 13.964 15.73 13.769 15.9358C13.7148 15.9792 13.6607 16.0225 13.6065 16.0658C13.5415 16.1092 13.4765 16.1417 13.4115 16.1634C13.3465 16.1959 13.2815 16.2175 13.2165 16.2284C13.1407 16.2392 13.0757 16.25 12.9998 16.25Z" fill="#F26A47"/>
<path d="M16.7918 16.25C16.5102 16.25 16.2285 16.1308 16.0227 15.9358C15.8277 15.73 15.7085 15.4483 15.7085 15.1667C15.7085 14.885 15.8277 14.6033 16.0227 14.3975C16.131 14.3 16.2393 14.2241 16.3802 14.17C16.5752 14.0833 16.7918 14.0616 17.0085 14.105C17.0735 14.1158 17.1385 14.1375 17.2035 14.17C17.2685 14.1916 17.3335 14.2242 17.3985 14.2675C17.4527 14.3108 17.5068 14.3542 17.561 14.3975C17.756 14.6033 17.8752 14.885 17.8752 15.1667C17.8752 15.4483 17.756 15.73 17.561 15.9358C17.5068 15.9791 17.4527 16.0225 17.3985 16.0658C17.3335 16.1091 17.2685 16.1417 17.2035 16.1633C17.1385 16.1958 17.0735 16.2175 17.0085 16.2283C16.9327 16.2392 16.8568 16.25 16.7918 16.25Z" fill="#F26A47"/>
<path d="M9.20833 20.0417C9.0675 20.0417 8.92667 20.0092 8.79667 19.955C8.65583 19.9009 8.5475 19.825 8.43917 19.7275C8.24417 19.5217 8.125 19.24 8.125 18.9583C8.125 18.6767 8.24417 18.395 8.43917 18.1892C8.5475 18.0917 8.65583 18.0158 8.79667 17.9617C8.99167 17.875 9.20833 17.8533 9.425 17.8967C9.49 17.9075 9.555 17.9292 9.62 17.9617C9.685 17.9833 9.75 18.0159 9.815 18.0592C9.86917 18.1025 9.92333 18.1459 9.9775 18.1892C10.1725 18.395 10.2917 18.6767 10.2917 18.9583C10.2917 19.24 10.1725 19.5217 9.9775 19.7275C9.92333 19.7708 9.86917 19.825 9.815 19.8575C9.75 19.9008 9.685 19.9334 9.62 19.955C9.555 19.9875 9.49 20.0092 9.425 20.02C9.34917 20.0309 9.28417 20.0417 9.20833 20.0417Z" fill="#F26A47"/>
<path d="M12.9998 20.0417C12.7182 20.0417 12.4365 19.9225 12.2307 19.7275C12.0357 19.5217 11.9165 19.24 11.9165 18.9583C11.9165 18.6767 12.0357 18.395 12.2307 18.1892C12.6315 17.7883 13.3682 17.7883 13.769 18.1892C13.964 18.395 14.0832 18.6767 14.0832 18.9583C14.0832 19.24 13.964 19.5217 13.769 19.7275C13.5632 19.9225 13.2815 20.0417 12.9998 20.0417Z" fill="#F26A47"/>
<path d="M16.7918 20.0417C16.5102 20.0417 16.2285 19.9225 16.0227 19.7275C15.8277 19.5217 15.7085 19.24 15.7085 18.9583C15.7085 18.6767 15.8277 18.395 16.0227 18.1892C16.4235 17.7883 17.1602 17.7883 17.561 18.1892C17.756 18.395 17.8752 18.6767 17.8752 18.9583C17.8752 19.24 17.756 19.5217 17.561 19.7275C17.3552 19.9225 17.0735 20.0417 16.7918 20.0417Z" fill="#F26A47"/>
</svg>
