<svg width="16" height="16" viewBox="0 0 16 16" fill="none" xmlns="http://www.w3.org/2000/svg">
<path d="M12 12.5733H11.4933C10.96 12.5733 10.4533 12.78 10.08 13.1533L8.93998 14.28C8.41998 14.7933 7.57334 14.7933 7.05334 14.28L5.91333 13.1533C5.54 12.78 5.02667 12.5733 4.5 12.5733H4C2.89333 12.5733 2 11.6867 2 10.5933V3.31334C2 2.22 2.89333 1.33334 4 1.33334H12C13.1067 1.33334 14 2.22 14 3.31334V10.5867C14 11.68 13.1067 12.5733 12 12.5733Z" stroke="#F26A47" stroke-width="1.3" stroke-miterlimit="10" stroke-linecap="round" stroke-linejoin="round"/>
<path d="M8.04671 5.96667C8.02005 5.96667 7.98003 5.96667 7.9467 5.96667C7.2467 5.94 6.69336 5.37334 6.69336 4.66667C6.69336 3.94667 7.27337 3.36667 7.99337 3.36667C8.71337 3.36667 9.29338 3.95334 9.29338 4.66667C9.30004 5.37334 8.74671 5.94667 8.04671 5.96667Z" stroke="#F26A47" stroke-width="1.3" stroke-linecap="round" stroke-linejoin="round"/>
<path d="M6.16695 7.97334C5.28029 8.56667 5.28029 9.53333 6.16695 10.1267C7.17362 10.8 8.82695 10.8 9.83362 10.1267C10.7203 9.53333 10.7203 8.56667 9.83362 7.97334C8.82695 7.30667 7.18029 7.30667 6.16695 7.97334Z" stroke="#F26A47" stroke-width="1.3" stroke-linecap="round" stroke-linejoin="round"/>
</svg>
