<svg width="24" height="24" viewBox="0 0 24 24" fill="none" xmlns="http://www.w3.org/2000/svg">
<path opacity="0.4" d="M17.028 0H6.972C2.604 0 0 2.604 0 6.972V17.028C0 21.396 2.604 24 6.972 24H17.028C21.396 24 24 21.396 24 17.028V6.972C24 2.604 21.396 0 17.028 0Z" fill="#F26A47"/>
<path d="M19.5722 8.24399C19.5722 8.73599 19.1762 9.14399 18.6722 9.14399H12.3722C11.8802 9.14399 11.4722 8.73599 11.4722 8.24399C11.4722 7.75199 11.8802 7.34399 12.3722 7.34399H18.6722C19.1762 7.34399 19.5722 7.75199 19.5722 8.24399Z" fill="#F26A47"/>
<path d="M9.56388 7.08L6.86387 9.78C6.68387 9.96 6.45588 10.044 6.22788 10.044C5.99988 10.044 5.75988 9.96 5.59188 9.78L4.69188 8.88C4.33187 8.532 4.33187 7.956 4.69188 7.608C5.03988 7.26 5.60388 7.26 5.96388 7.608L6.22788 7.872L8.29188 5.808C8.63987 5.46 9.20388 5.46 9.56388 5.808C9.91188 6.156 9.91188 6.732 9.56388 7.08Z" fill="#F26A47"/>
<path d="M19.5722 16.644C19.5722 17.136 19.1762 17.544 18.6722 17.544H12.3722C11.8802 17.544 11.4722 17.136 11.4722 16.644C11.4722 16.152 11.8802 15.744 12.3722 15.744H18.6722C19.1762 15.744 19.5722 16.152 19.5722 16.644Z" fill="#F26A47"/>
<path d="M9.56388 15.48L6.86387 18.18C6.68387 18.36 6.45588 18.444 6.22788 18.444C5.99988 18.444 5.75988 18.36 5.59188 18.18L4.69188 17.28C4.33187 16.932 4.33187 16.356 4.69188 16.008C5.03988 15.66 5.60388 15.66 5.96388 16.008L6.22788 16.272L8.29188 14.208C8.63987 13.86 9.20388 13.86 9.56388 14.208C9.91188 14.556 9.91188 15.132 9.56388 15.48Z" fill="#F26A47"/>
</svg>
