<svg width="22" height="22" viewBox="0 0 22 22" fill="none" xmlns="http://www.w3.org/2000/svg">
<path d="M15.5836 9.16683H17.4169C19.2502 9.16683 20.1669 8.25016 20.1669 6.41683V4.5835C20.1669 2.75016 19.2502 1.8335 17.4169 1.8335H15.5836C13.7502 1.8335 12.8336 2.75016 12.8336 4.5835V6.41683C12.8336 8.25016 13.7502 9.16683 15.5836 9.16683Z" stroke="#D1DEDE" stroke-width="1.5" stroke-miterlimit="10" stroke-linecap="round" stroke-linejoin="round"/>
<path d="M4.58356 20.1668H6.41689C8.25022 20.1668 9.16689 19.2502 9.16689 17.4168V15.5835C9.16689 13.7502 8.25022 12.8335 6.41689 12.8335H4.58356C2.75022 12.8335 1.83356 13.7502 1.83356 15.5835V17.4168C1.83356 19.2502 2.75022 20.1668 4.58356 20.1668Z" stroke="#D1DEDE" stroke-width="1.5" stroke-miterlimit="10" stroke-linecap="round" stroke-linejoin="round"/>
<path d="M5.50022 9.16683C7.52527 9.16683 9.16689 7.52521 9.16689 5.50016C9.16689 3.47512 7.52527 1.8335 5.50022 1.8335C3.47518 1.8335 1.83356 3.47512 1.83356 5.50016C1.83356 7.52521 3.47518 9.16683 5.50022 9.16683Z" stroke="#D1DEDE" stroke-width="1.5" stroke-miterlimit="10" stroke-linecap="round" stroke-linejoin="round"/>
<path d="M16.5002 20.1668C18.5253 20.1668 20.1669 18.5252 20.1669 16.5002C20.1669 14.4751 18.5253 12.8335 16.5002 12.8335C14.4752 12.8335 12.8336 14.4751 12.8336 16.5002C12.8336 18.5252 14.4752 20.1668 16.5002 20.1668Z" stroke="#D1DEDE" stroke-width="1.5" stroke-miterlimit="10" stroke-linecap="round" stroke-linejoin="round"/>
</svg>
